<svg id="图层_1" data-name="图层 1" xmlns="http://www.w3.org/2000/svg" viewBox="0 0 280 280"><defs><style>.cls-1{fill:#717070;stroke-width:5px;}.cls-1,.cls-7,.cls-8{stroke:#52120e;}.cls-1,.cls-6,.cls-7,.cls-8{stroke-miterlimit:10;}.cls-2{fill:#e1717a;}.cls-3{fill:#52120e;}.cls-4{fill:#fff;}.cls-5{fill:#121839;}.cls-6,.cls-7,.cls-8{fill:none;}.cls-6{stroke:#121839;stroke-width:2px;}.cls-7{stroke-width:3.75px;}.cls-8{stroke-width:1.25px;}</style></defs><title>小元素</title><circle class="cls-1" cx="142.93" cy="138.65" r="79.18"/><path class="cls-2" d="M142.93,169.1a30.45,30.45,0,1,1,30.45-30.45A30.48,30.48,0,0,1,142.93,169.1Z"/><path class="cls-3" d="M142.93,110.71A27.95,27.95,0,1,1,115,138.65a27.94,27.94,0,0,1,27.94-27.94m0-5a32.95,32.95,0,1,0,32.95,32.94,33,33,0,0,0-32.95-32.94Z"/><path class="cls-4" d="M142.93,155.64a17,17,0,1,1,17-17A17,17,0,0,1,142.93,155.64Z"/><path class="cls-3" d="M142.93,124.17a14.49,14.49,0,1,1-14.48,14.48,14.48,14.48,0,0,1,14.48-14.48m0-5a19.49,19.49,0,1,0,19.49,19.48,19.5,19.5,0,0,0-19.49-19.48Z"/><path class="cls-5" d="M142.93,148a9.31,9.31,0,1,1,9.31-9.31A9.32,9.32,0,0,1,142.93,148Z"/><path class="cls-4" d="M142.93,131.85a6.81,6.81,0,1,1-6.8,6.8,6.8,6.8,0,0,1,6.8-6.8m0-5a11.81,11.81,0,1,0,11.81,11.8,11.81,11.81,0,0,0-11.81-11.8Z"/><path class="cls-6" d="M120,201.8a46.2,46.2,0,0,0,45.89,0"/><path class="cls-7" d="M120,201.8a46.2,46.2,0,0,0,45.89,0"/><path class="cls-6" d="M161.43,194.09a37.29,37.29,0,0,1-37,0"/><path class="cls-7" d="M161.43,194.09a37.29,37.29,0,0,1-37,0"/><path class="cls-6" d="M128.89,186.38a28.31,28.31,0,0,0,28.09,0"/><path class="cls-8" d="M128.89,186.38a28.31,28.31,0,0,0,28.09,0"/><path class="cls-6" d="M152.53,178.67a19.39,19.39,0,0,1-19.19,0"/><path class="cls-8" d="M152.53,178.67a19.39,19.39,0,0,1-19.19,0"/><path class="cls-6" d="M166.78,75.21a48,48,0,0,0-47.69,0"/><path class="cls-7" d="M166.78,75.21a48,48,0,0,0-47.69,0"/><path class="cls-6" d="M123.71,83.22a38.7,38.7,0,0,1,38.44,0"/><path class="cls-7" d="M123.71,83.22a38.7,38.7,0,0,1,38.44,0"/><path class="cls-6" d="M157.53,91.23a29.46,29.46,0,0,0-29.19,0"/><path class="cls-8" d="M157.53,91.23a29.46,29.46,0,0,0-29.19,0"/><path class="cls-6" d="M133,99.24a20.15,20.15,0,0,1,19.94,0"/><path class="cls-8" d="M133,99.24a20.15,20.15,0,0,1,19.94,0"/></svg>