<svg
  t="1628348777921"
  class="icon"
  viewBox="0 0 1024 1024"
  version="1.1"
  xmlns="http://www.w3.org/2000/svg"
  p-id="2398"
  width="15"
  height="15"
>
  <path d="M660.48 721.28" p-id="2399"></path>
  <path
    d="M910.98112 724.29056 113.01888 724.29056c-38.48704 0-69.79584-31.3088-69.79584-69.79584L43.22304 369.5104c0-38.48704 31.3088-69.80096 69.79584-69.80096l797.96224 0c38.48704 0 69.79584 31.31392 69.79584 69.80096l0 284.98432C980.77696 692.98176 949.46304 724.29056 910.98112 724.29056zM113.01888 325.30944c-24.3712 0-44.19584 19.82976-44.19584 44.20096l0 284.98432c0 24.3712 19.82464 44.19584 44.19584 44.19584l797.96224 0c24.3712 0 44.19584-19.82464 44.19584-44.19584L955.17696 369.5104c0-24.3712-19.82464-44.20096-44.19584-44.20096L113.01888 325.30944z"
    p-id="2400"
  ></path>
  <path
    d="M144.86016 645.44256l0-261.9392 34.6624 0 0 107.56096 136.14592 0L315.66848 383.50848l34.6624 0 0 261.9392-34.6624 0 0-123.46368L179.52256 521.984l0 123.46368L144.86016 645.44768z"
    p-id="2401"
  ></path>
  <path
    d="M397.50144 517.86752c0-43.47392 11.6736-77.51168 35.0208-102.11328 23.3472-24.59648 53.48352-36.89472 90.40896-36.89472 24.18176 0 45.9776 5.78048 65.39264 17.3312 19.41504 11.55584 34.21696 27.66336 44.40064 48.32768 10.18368 20.66944 15.27808 44.10368 15.27808 70.30784 0 26.56256-5.36064 50.32448-16.08192 71.29088-10.7264 20.9664-25.91232 36.83328-45.56288 47.616s-40.85248 16.16896-63.61088 16.16896c-24.6528 0-46.6944-5.95456-66.10432-17.86368-19.41504-11.90912-34.12992-28.17024-44.1344-48.77824C402.5088 562.6624 397.50144 540.86144 397.50144 517.86752zM433.23904 518.40512c0 31.56992 8.48896 56.43264 25.46176 74.5984 16.9728 18.16576 38.26176 27.24352 63.87712 27.24352 26.0864 0 47.55456-9.16992 64.4096-27.51488 16.85504-18.33984 25.28256-44.36992 25.28256-78.08 0-21.3248-3.60448-39.936-10.80832-55.83872-7.20896-15.8976-17.75104-28.23168-31.62624-36.98688-13.88032-8.7552-29.45536-13.1328-46.72512-13.1328-24.54016 0-45.64992 8.42752-63.33952 25.28256C442.08128 450.8416 433.23904 478.98112 433.23904 518.40512z"
    p-id="2402"
  ></path>
  <path
    d="M759.31648 645.44256 759.31648 414.41792l-86.2976 0 0-30.90944 207.62112 0 0 30.90944-86.656 0 0 231.02976L759.31648 645.44768z"
    p-id="2403"
  ></path>
</svg>
