<?xml version="1.0" encoding="UTF-8"?>
<svg width="50px" height="50px" viewBox="0 0 50 50" version="1.1" xmlns="http://www.w3.org/2000/svg" xmlns:xlink="http://www.w3.org/1999/xlink">
    <title>Music</title>
    <defs>
        <linearGradient x1="53.481256%" y1="-4.90478472%" x2="53.481256%" y2="100%" id="linearGradient-1">
            <stop stop-color="#3F96FF" offset="0%"></stop>
            <stop stop-color="#7130FB" offset="100%"></stop>
        </linearGradient>
        <linearGradient x1="53.481256%" y1="-4.90478472%" x2="53.481256%" y2="100%" id="linearGradient-2">
            <stop stop-color="#63AAFF" offset="0%"></stop>
            <stop stop-color="#7D40FF" offset="100%"></stop>
        </linearGradient>
    </defs>
    <g id="Page-1" stroke="none" stroke-width="1" fill="none" fill-rule="evenodd">
        <g id="Iconspace_Education-Icon" transform="translate(-450.000000, -750.000000)">
            <g id="Music" transform="translate(450.000000, 750.000000)">
                <polygon id="Shape" points="0 0 50 0 50 50 0 50"></polygon>
                <path d="M42,37 C42,40.8659932 38.8659932,44 35,44 C31.1340068,44 28,40.8659932 28,37 C28,33.1340068 31.1340068,30 35,30 C36.0735973,30 37.0907446,30.241691 38,30.6736312 L38,9.23700155 C38,9.05923757 37.9763004,8.88226699 37.9295276,8.71076673 C37.6388962,7.64511804 36.5394139,7.01684244 35.4737652,7.3074739 L21.4737652,11.1256557 C20.6036427,11.3629619 20,12.1532812 20,13.0551834 L20,41 C20,44.8659932 16.8659932,48 13,48 C9.13400675,48 6,44.8659932 6,41 C6,37.1340068 9.13400675,34 13,34 C14.0735973,34 15.0907446,34.241691 16,34.6736312 L16,13.0551834 C16,10.349477 17.810928,7.97851887 20.4212956,7.26660044 L34.4212956,3.44841862 C37.6182416,2.57652423 40.9166885,4.46135104 41.7885829,7.65829711 C41.9289013,8.17279788 42,8.70370961 42,9.23700155 L42,37 L42,37 Z" id="Shape" fill="url(#linearGradient-1)"></path>
                <path d="M27,9.61850077 L21.4737652,11.1256557 C20.6036427,11.3629619 20,12.1532812 20,13.0551834 L20,41 C20,44.8659932 16.8659932,48 13,48 C9.13400675,48 6,44.8659932 6,41 C6,37.1340068 9.13400675,34 13,34 C14.0735973,34 15.0907446,34.241691 16,34.6736312 L16,13.0551834 C16,10.349477 17.810928,7.97851887 20.4212956,7.26660044 L27,5.47240832 L27,9.61850077 Z" id="Shape" fill="url(#linearGradient-2)"></path>
            </g>
        </g>
    </g>
</svg>