<svg xmlns="http://www.w3.org/2000/svg" xmlns:xlink="http://www.w3.org/1999/xlink" viewBox="0 0 360 360"><defs><style>.cls-1,.cls-12,.cls-7{fill:none;}.cls-2{fill:#a7a7a7;}.cls-3{fill:#0f0f0f;}.cls-11,.cls-4,.cls-5{fill:#f0f0f0;}.cls-10,.cls-12,.cls-4,.cls-5,.cls-6,.cls-7,.cls-9{stroke:#000;stroke-width:1.42px;}.cls-10,.cls-4,.cls-6,.cls-7{stroke-miterlimit:10;}.cls-12,.cls-5,.cls-7,.cls-9{stroke-linecap:round;}.cls-12,.cls-5,.cls-9{stroke-linejoin:round;}.cls-6{fill:#c6c6c6;}.cls-8{fill:url(#未命名的渐变_15);}.cls-9{fill:#ffc51f;}.cls-10{fill:url(#未命名的渐变_4);}</style><linearGradient id="未命名的渐变_15" x1="180" y1="277.16" x2="180" y2="187.68" gradientUnits="userSpaceOnUse"><stop offset="0" stop-color="#0f0f0f" stop-opacity="0.5"/><stop offset="0.24" stop-color="#0f0f0f" stop-opacity="0.12"/><stop offset="1" stop-color="#0f0f0f" stop-opacity="0"/></linearGradient><linearGradient id="未命名的渐变_4" x1="117.45" y1="47.59" x2="148.19" y2="47.59" gradientTransform="matrix(0.99, -0.04, -0.04, 0.82, 21.12, 97.18)" gradientUnits="userSpaceOnUse"><stop offset="0" stop-color="#fff"/><stop offset="1" stop-color="#d9d9d9"/></linearGradient></defs><title>未登录</title><g id="图层_2" data-name="图层 2"><g id="图层_1-2" data-name="图层 1"><rect class="cls-1" width="360" height="360"/><path class="cls-2" d="M282.78,245.38c-.82,11,42.91,3.66,27.52,18.78-3.76,3.69-16.08,6.38-33.28,8.34-53.28,6.07-153.28,4.95-189.39,3.56-40.21-1.54-31.08-12.5-46.51-17.29a51.66,51.66,0,0,0-11.78-1.95c-32.4-2.28-42.38-26.57-3.25-24.72a78,78,0,0,0,21.65-1.81c11.29-2.77,15.48-7.82,4.66-10.44a66.07,66.07,0,0,0-11.73-1.49C6.66,216.53,47,202,54.44,200q7.05-1.87,13.88-3.44c103.62-23.68,168.7,6.51,191.38,13.45,1.37.42,2.59.75,3.64,1,39.67,8.7,89.07,3.21,95.54,22.9C366.15,256,283.58,234.38,282.78,245.38Z"/><path class="cls-3" d="M309.39,220.36c-3.92,7.57-5.75,14.91-5.58,22,3.65.23,7.55.53,11.54.82A35.41,35.41,0,0,1,318.62,224a37.1,37.1,0,0,1,3.47-5.77c-3.6-.41-7.36-.78-11.22-1.13C310.41,218.17,310,219.29,309.39,220.36Z"/><path class="cls-3" d="M332.56,219.64c-2.92-.5-6-.93-9.24-1.31-2.42,4.65-4.85,9.3-6,14.24a30.88,30.88,0,0,0-.66,10.74c4.06.3,8.18.59,12.19.79A33.36,33.36,0,0,1,332.56,219.64Z"/><path class="cls-3" d="M353.49,235.16a19.32,19.32,0,0,1,.16-8.23,31.51,31.51,0,0,0-9.21-4.5,24.79,24.79,0,0,0-1.52,18.06,20.76,20.76,0,0,0,1.48,3.69c4.52-.3,8.33-1,11-2.27A31.81,31.81,0,0,1,353.49,235.16Z"/><path class="cls-3" d="M358.88,233.93a13.74,13.74,0,0,0-4-6,21.09,21.09,0,0,0,1.79,13.17C359,239.55,360,237.23,358.88,233.93Z"/><path class="cls-3" d="M298.84,268.94c5.14-1.26,8.88-2.69,10.9-4.32a42.21,42.21,0,0,1-5.3-11c-4-.73-8.61-1.25-12.58-2.08A46.68,46.68,0,0,0,298.84,268.94Z"/><path class="cls-3" d="M305.9,253.93a46.55,46.55,0,0,0,4.79,9.82C316.63,257.65,312.58,255.34,305.9,253.93Z"/><path class="cls-3" d="M342.38,244.28a44.4,44.4,0,0,1-1.53-6.34,25.64,25.64,0,0,1,2.44-15.87A80.57,80.57,0,0,0,334,219.9c-4.68,9.38-6.07,16.83-4,24.26C334.4,244.36,338.59,244.43,342.38,244.28Z"/><path class="cls-3" d="M189.59,263.83c-12.46-25.19-13.49-49.69-6.41-73.67-5.83-.76-12-1.38-18.36-1.81a92.62,92.62,0,0,0-2.94,20.55c-.59,23.73,5.58,45.69,17.92,66,.43.71.88,1.41,1.32,2.12,5.12,0,10.27-.13,15.42-.23C194,272.59,191.77,268.23,189.59,263.83Z"/><path class="cls-3" d="M129.09,277c5.19.06,10.62.11,16.22.13-.93-1.43-1.82-2.87-2.64-4.36-14.79-26.77-21.89-54.84-18.27-84.43q-8.72.55-18,1.64c-1,18.27,1.91,36.6,8,55A168.89,168.89,0,0,0,129.09,277Z"/><path class="cls-3" d="M266.93,260.55c-5.37-16.84-4.38-32.93,2.59-48.3q-3.12-.56-6.18-1.23c-1-.22-2.27-.56-3.64-1s-3-.95-4.72-1.54c-7.88,22.18-8.23,44.08,5.36,64.84a1.46,1.46,0,0,1,.18.71c4.14-.32,8.11-.67,11.88-1.06A55.9,55.9,0,0,1,266.93,260.55Z"/><path class="cls-3" d="M105.29,190.1c-5.7.7-11.54,1.55-17.52,2.59a152.66,152.66,0,0,0,3.16,29.6,182,182,0,0,0,21,54.43c4.91.1,10.17.19,15.71.25a162.61,162.61,0,0,1-17.86-43.48A146,146,0,0,1,105.29,190.1Z"/><path class="cls-3" d="M184.44,190.33a101.82,101.82,0,0,0-4.32,24.38c-1.05,21.06,5.18,40.34,15.84,58.34.74,1.25,1.52,2.49,2.32,3.71,5.12-.1,10.23-.22,15.29-.37-9.46-14.86-15.79-30.83-16.45-48.69a98.2,98.2,0,0,1,5.17-34.4C196.68,192.19,190.73,191.18,184.44,190.33Z"/><path class="cls-3" d="M233.67,240.39c.77,11.7,5,22.1,11.25,31.88a20.71,20.71,0,0,1,1.39,2.74c4.73-.28,9.32-.58,13.73-.92-5.79-6-8.45-13.51-10-21.31A82.15,82.15,0,0,1,253.56,208c-4.09-1.41-9-3.15-14.71-5A93.76,93.76,0,0,0,233.67,240.39Z"/><path class="cls-3" d="M52.3,200.67a185.75,185.75,0,0,0,3.25,19l.33,1.35c3.4,1.53,3.54,3.48,1.31,5.33a208.08,208.08,0,0,0,20.1,49c3,.31,6.45.55,10.34.7l5.5.19a184.64,184.64,0,0,1-20.7-52.31,182,182,0,0,1-4-27.38l-.16,0Q61.5,198.16,54.44,200C53.89,200.18,53.16,200.4,52.3,200.67Z"/><path class="cls-3" d="M27.35,232.14a206.42,206.42,0,0,0,10.17,25.72,34.23,34.23,0,0,1,3.6.91c9,2.8,9.65,7.72,16.67,11.62a209.79,209.79,0,0,1-16.35-38.94A83.72,83.72,0,0,1,27.35,232.14Z"/><path class="cls-3" d="M75.69,275.18a206.18,206.18,0,0,1-19.65-48,30.38,30.38,0,0,1-8.3,3.15c-1.59.38-3.34.72-5.19,1a206.89,206.89,0,0,0,16.9,40C63,272.88,68,274.29,75.69,275.18Z"/><path class="cls-3" d="M291.21,242.11c3.17-.15,7,0,11.33.21A41.3,41.3,0,0,1,310.4,217l-10.66-1A51.7,51.7,0,0,0,291.21,242.11Z"/><path class="cls-3" d="M110.43,276.7C98.88,256.58,90.88,235,87.79,211.47a153.47,153.47,0,0,1-1.31-18.55q-8.22,1.46-16.78,3.37c1.81,28.91,10.84,55.34,25,80C99.32,276.44,104.61,276.58,110.43,276.7Z"/><path class="cls-3" d="M37.94,218.17q-1.23-5.43-2.14-11C26.77,211.67,21.35,216.76,37.94,218.17Z"/><path class="cls-3" d="M29.34,256.82c2.54.18,4.75.44,6.68.76A206.66,206.66,0,0,1,25.9,232.09a60.77,60.77,0,0,0-14,.76c1.82,5.82,3.63,11.65,5.36,17.22-2.39-5.41-4.71-11.13-6.76-16.92C-9.06,237.77,2.36,254.92,29.34,256.82Z"/><path class="cls-3" d="M37.67,211.17q.66,3.57,1.46,7.09l1.54.1a66.07,66.07,0,0,1,11.73,1.49c.74.18,1.4.37,2,.57A190.6,190.6,0,0,1,51,201.08a133,133,0,0,0-14.11,5.58C37.15,208.16,37.39,209.66,37.67,211.17Z"/><path class="cls-3" d="M221.57,198.5c-8.92,26.32-7.07,51.5,8.33,75.24a9.16,9.16,0,0,1,.9,2c5.13-.22,10.15-.47,15-.75a51.34,51.34,0,0,1-11.63-24.25,89,89,0,0,1,3.38-48.21c-4.74-1.53-10-3.13-15.79-4.7Z"/><path class="cls-3" d="M269.64,215.15c-7,17.54-6.56,35,1.28,52.09a47.51,47.51,0,0,0,3.07,5.59l3-.33c2.69-.31,5.25-.63,7.69-1-4.76-6.14-6.54-13.37-7.29-20.86A49.7,49.7,0,0,1,285,218.88a14.76,14.76,0,0,1-.75,3.37c-7.74,16-8.07,32,.5,47.83a3.89,3.89,0,0,1,.34,1.38c4.74-.67,8.95-1.42,12.56-2.25a48.57,48.57,0,0,1-7.26-18c-4.55-1.1-7.89-2.74-7.66-5.85.15-1.93,2.81-2.85,7.07-3.18a52.57,52.57,0,0,1,6.7-22.88,38.14,38.14,0,0,1,2.11-3.38c-9.25-.86-18.77-1.87-28-3.48C270.34,213.36,270,214.26,269.64,215.15Z"/><path class="cls-3" d="M199.09,236c2.15,14.67,7.79,28,15.82,40.34,5.31-.16,10.56-.35,15.7-.57-4-7.32-8.81-14.36-11.49-22.12-6.68-19.37-5.13-38,1.49-56.1-5.28-1.4-11-2.77-17.11-4C199,207.14,196.93,221.2,199.09,236Z"/><path class="cls-3" d="M151.32,251.17a152.2,152.2,0,0,0,12.35,26c5.25,0,10.58-.05,15.94-.1-15.62-25.61-22.81-53.21-17.28-83.3q.51-2.76,1.15-5.47-8.82-.56-18.36-.59C141.17,208.77,143.44,229.93,151.32,251.17Z"/><path class="cls-3" d="M125.58,188.26c-3.46,27.84,2.93,54.76,16.57,81,1.38,2.65,2.83,5.27,4.29,7.88,5.27,0,10.7,0,16.21,0a82.89,82.89,0,0,1-5-8.31c-8.77-17.13-14.46-35.23-15.48-54.58a112.67,112.67,0,0,1,1.73-26.58C138,187.7,131.88,187.88,125.58,188.26Z"/><path class="cls-4" d="M277.1,267.55c0,1.35,0,2.69-.08,4-53.28,6.07-153.28,4.95-189.39,3.56-40.21-1.54-31.08-12.5-46.51-17.29A106.49,106.49,0,0,1,52.4,218.91a111.29,111.29,0,0,1,15.92-23.25c21.68-24.43,54.21-40,90.57-40,42.64,0,80,21.38,100.81,53.42A106.86,106.86,0,0,1,277.1,267.55Z"/><path class="cls-5" d="M91.46,180.32s2.54-2.77-.46-8.18l18.23-9.28s1.81,5.53,7.4,5.3"/><ellipse class="cls-6" cx="100.12" cy="167.5" rx="10.23" ry="3" transform="translate(-64.95 63.42) rotate(-26.9)"/><path class="cls-5" d="M225.93,182.24s3.14.59,6.76-4.5l13.6,9.66s-4.08,4.22-2.12,8.51"/><ellipse class="cls-6" cx="239.49" cy="182.57" rx="2.46" ry="8.34" transform="translate(-47.92 272.48) rotate(-54.69)"/><ellipse class="cls-6" cx="69.24" cy="229.41" rx="11.07" ry="7.18" transform="translate(-165.71 182.27) rotate(-61.86)"/><path class="cls-7" d="M64.25,243.2s11.93,3.48,16-11.38"/><ellipse class="cls-6" cx="250.04" cy="241.2" rx="9.94" ry="15.3" transform="translate(-81.16 136.3) rotate(-26.39)"/><path class="cls-7" d="M238.82,224.24s-13.9,10-.7,26.83"/><ellipse class="cls-6" cx="167.21" cy="214.6" rx="9.78" ry="13.36" transform="translate(-62.54 360.31) rotate(-84.46)"/><path class="cls-7" d="M152.61,222.17s4.25,8,18.22,6.37"/><path class="cls-8" d="M282.78,245.38c-.82,11,42.91,3.66,27.52,18.78-3.76,3.69-16.08,6.38-33.28,8.34-53.28,6.07-153.28,4.95-189.39,3.56-40.21-1.54-31.08-12.5-46.51-17.29a51.66,51.66,0,0,0-11.78-1.95c-32.4-2.28-42.38-26.57-3.25-24.72a78,78,0,0,0,21.65-1.81c11.29-2.77,15.48-7.82,4.66-10.44a66.07,66.07,0,0,0-11.73-1.49C6.66,216.53,47,202,54.44,200q7.05-1.87,13.88-3.44c103.62-23.68,168.7,6.51,191.38,13.45,1.37.42,2.59.75,3.64,1,39.67,8.7,89.07,3.21,95.54,22.9C366.15,256,283.58,234.38,282.78,245.38Z"/><path class="cls-9" d="M201.73,98.14c-5.9,2.26-15.82,4.65-25.09-5.85-9.93-11.29-21.5-9.23-28-6.63-3.13,1.27-5,4.38-4.45,6.89l7,31.83a8,8,0,0,0,4.49-1.09,3.7,3.7,0,0,1,.4-.17c4.07-1.81,8.49-3.19,20.78-.49,15.42,3.37,25.09-11,28-20.15a14.36,14.36,0,0,0,.19-6.18A26.36,26.36,0,0,1,201.73,98.14Z"/><path class="cls-10" d="M141.76,82.87l-2.77.59a1.59,1.59,0,0,0-1,2l20.38,92.25a1.62,1.62,0,0,0,1.76,1.41l2.77-.59a1.59,1.59,0,0,0,1-2L143.52,84.28A1.63,1.63,0,0,0,141.76,82.87Z"/><path class="cls-11" d="M150.45,173.11s3.14-1.7,9.42,1.49S170,173,170,173l6.32,10.45-29.52,3.65Z"/><path class="cls-12" d="M150.45,173.11s3.14-1.7,9.42,1.49S170,173,170,173"/></g></g></svg>